<?xml version="1.0" encoding="utf-8"?>
<!-- Generator: Adobe Illustrator 27.0.0, SVG Export Plug-In . SVG Version: 6.00 Build 0)  -->
<svg version="1.1" id="Pictogram" xmlns="http://www.w3.org/2000/svg" xmlns:xlink="http://www.w3.org/1999/xlink" x="0px" y="0px"
	 viewBox="0 0 144 144" style="enable-background:new 0 0 144 144;" xml:space="preserve">
<style type="text/css">
	.st0{fill:none;}
</style>
<g>
	<path d="M29.8,77.9c0,2.8,2.3,5.1,5.1,5.1h34.4c1.3,0,2.6-0.5,3.6-1.5c1-1,1.5-2.3,1.5-3.6c0-1.3-0.5-2.6-1.5-3.6L43.5,44.8
		c-4,4-4,10.5,0,14.5l13.4,13.4h-22C32.1,72.7,29.8,75.1,29.8,77.9z"/>
	<path d="M73.6,128.9L0,55.3v3.8l71.7,71.7c2,2,4.7,3,7.3,3s5.3-1,7.3-3l-1.9-1.9C81.5,131.9,76.6,131.9,73.6,128.9z"/>
	<path d="M110,72.7H92.8V50.1c0-2.3-0.9-4.6-2.6-6.4c-1.8-1.8-4.1-2.6-6.4-2.6H51L25.2,15.4l-1.9,1.9l59.2,59.2v1.4
		c0,1.4,0.6,2.7,1.5,3.6c0.9,0.9,2.2,1.5,3.6,1.5H110c2.8,0,5.1-2.3,5.1-5.1S112.8,72.7,110,72.7z M69,59.1h13.5v13.5L69,59.1z"/>
	<circle cx="105.9" cy="50.1" r="9"/>
</g>
<rect class="st0" width="144" height="144"/>
</svg>
