<?xml version="1.0" encoding="utf-8"?>
<!-- Generator: Adobe Illustrator 27.0.0, SVG Export Plug-In . SVG Version: 6.00 Build 0)  -->
<svg version="1.1" id="Pictogram" xmlns="http://www.w3.org/2000/svg" xmlns:xlink="http://www.w3.org/1999/xlink" x="0px" y="0px"
	 viewBox="0 0 144 144" style="enable-background:new 0 0 144 144;" xml:space="preserve">
<style type="text/css">
	.st0{fill:none;}
</style>
<g>
	<circle cx="43.4" cy="15.4" r="9"/>
	<path d="M17.9,132.4c-0.7,2.8,0.9,5.6,3.6,6.3s5.6-0.9,6.3-3.6L44,74.6H33.4L17.9,132.4z"/>
	<path d="M56.6,74.6H46l16.2,60.5c0.7,2.8,3.6,4.4,6.3,3.6c2.8-0.7,4.4-3.6,3.6-6.3L56.6,74.6z"/>
	<path d="M99,28.5c-0.3-9.6-1.4-19.1-3.4-28.4h-2.8c2,9.3,3.2,18.7,3.5,28.3H18c-2.8,0-5.1,2.3-5.1,5.1s2.3,5.1,5.1,5.1h15.4v30.9
		h23.1V38.6h39.7c-0.6,19.4-4.8,38.2-12.3,56l2.5,1.1c7.7-18.2,11.9-37.4,12.5-57.3c2.2-0.6,3.9-2.6,3.9-5
		C102.9,31,101.2,29,99,28.5z"/>
</g>
<rect class="st0" width="144" height="144"/>
</svg>
