<?xml version="1.0" encoding="utf-8"?>
<!-- Generator: Adobe Illustrator 27.0.0, SVG Export Plug-In . SVG Version: 6.00 Build 0)  -->
<svg version="1.1" id="Pictogram" xmlns="http://www.w3.org/2000/svg" xmlns:xlink="http://www.w3.org/1999/xlink" x="0px" y="0px"
	 viewBox="0 0 144 144" style="enable-background:new 0 0 144 144;" xml:space="preserve">
<style type="text/css">
	.st0{fill:none;}
</style>
<g>
	<path d="M107.1,127.6c1.7-0.4,2.9-1.7,2.9-3.5c0-2.8-2.2-4.5-5.4-4.5c-3.5,0-5.9,2-6,5.1h3c0.1-1.6,1.3-2.6,3-2.6
		c1.7,0,2.6,0.9,2.6,2.2c0,1.5-1.2,2.2-2.7,2.2h-1.2v2.4h1.1c1.8,0,3,1,3,2.4c0,1.6-1.2,2.5-3.1,2.5c-1.8,0-3-1.1-3-3.1h-2.9
		c0,3.5,2.2,5.5,6,5.5c3.5,0,5.9-1.9,5.9-4.7C110.4,129.4,108.9,128.1,107.1,127.6z"/>
	<polygon points="122.7,124.5 120.9,122.7 117.4,126.3 113.9,122.7 112.1,124.5 115.6,128 112,131.7 113.8,133.5 117.4,129.8 
		121,133.5 122.8,131.7 119.1,128 	"/>
	<path d="M133,127.6c1.7-0.4,2.9-1.7,2.9-3.5c0-2.8-2.2-4.5-5.4-4.5c-3.5,0-5.9,2-6,5.1h3c0.1-1.6,1.3-2.6,3-2.6
		c1.7,0,2.6,0.9,2.6,2.2c0,1.5-1.2,2.2-2.7,2.2h-1.2v2.4h1.1c1.8,0,3,1,3,2.4c0,1.6-1.2,2.5-3.1,2.5c-1.8,0-3-1.1-3-3.1h-2.9
		c0,3.5,2.2,5.5,6,5.5c3.5,0,5.9-1.9,5.9-4.7C136.3,129.4,134.8,128.1,133,127.6z"/>
	<g>
		<path d="M131.1,36l5.1-25.7H108l5.1,25.7H131.1z M133,13l-4.1,20.3h-13.5l-4-20.3H133z"/>
		<path d="M116.3,51.4c2.8,0,5.1-2.3,5.1-5.1c0-2.8-2.3-5.1-5.1-5.1l-77.6,0l-13-13c-2-2-5.3-2-7.3,0s-2,5.3,0,7.3L33,49.9
			c1,1,2.3,1.5,3.6,1.5h20.6v25.7h23.1V51.4H116.3z"/>
		<ellipse cx="66.9" cy="28.3" rx="9" ry="9"/>
		<path d="M34.7,28.3c2.3,0,4.6-0.9,6.4-2.6c3.5-3.5,3.5-9.2,0-12.7c-1.8-1.8-4.1-2.6-6.4-2.6c-2.3,0-4.6,0.9-6.4,2.6
			c-3.5,3.5-3.5,9.2,0,12.7C30.1,27.4,32.4,28.3,34.7,28.3z M30.3,14.8c1.2-1.2,2.8-1.8,4.4-1.8c1.7,0,3.3,0.6,4.4,1.8
			c1.2,1.2,1.8,2.8,1.8,4.4s-0.6,3.3-1.8,4.4c-1.2,1.2-2.8,1.8-4.4,1.8c-1.7,0-3.3-0.6-4.4-1.8c-1.2-1.2-1.8-2.8-1.8-4.4
			S29.1,16,30.3,14.8z"/>
		<path d="M57,82.3l-45.2,45.2c-0.9,0.9-1.5,2.2-1.5,3.6c0,2.8,2.3,5.1,5.1,5.1c1.4,0,2.7-0.6,3.6-1.5l21.4-21.4h34.7
			c2.8,0,5.1-2.3,5.1-5.1V82.3H57z M70.1,83.8v19.3H50.8L70.1,83.8z"/>
	</g>
</g>
<rect class="st0" width="144" height="144"/>
</svg>
