<?xml version="1.0" encoding="utf-8"?>
<!-- Generator: Adobe Illustrator 27.0.0, SVG Export Plug-In . SVG Version: 6.00 Build 0)  -->
<svg version="1.1" id="Pictogram" xmlns="http://www.w3.org/2000/svg" xmlns:xlink="http://www.w3.org/1999/xlink" x="0px" y="0px"
	 viewBox="0 0 144 144" style="enable-background:new 0 0 144 144;" xml:space="preserve">
<style type="text/css">
	.st0{fill:none;}
</style>
<g>
	<path d="M63.3,39.5l10.4,10.4c1,1,2.3,1.5,3.7,1.5l23.2,0c2.8,0,5.1-2.3,5.1-5.1c0-2.8-2.3-5.1-5.1-5.1h-21L64.3,25.9
		c-1.6-1.7-3.9-2.7-6.4-2.7c-2.5,0-4.7,1-6.4,2.6L25.8,51.5h25.5L63.3,39.5z"/>
	<circle cx="77.1" cy="19.3" r="9"/>
	<path d="M39.9,92.6c-12.1,0-21.9,9.8-21.9,21.9s9.8,21.9,21.9,21.9s21.9-9.8,21.9-21.9C61.7,102.4,51.9,92.6,39.9,92.6z
		 M39.9,133.6c-10.6,0-19.1-8.6-19.1-19.1s8.6-19.1,19.1-19.1S59,103.9,59,114.4S50.4,133.6,39.9,133.6z"/>
	<path d="M74.6,78.4c0,12.1,9.8,21.9,21.9,21.9s21.9-9.8,21.9-21.9s-9.8-21.9-21.9-21.9C84.4,56.6,74.6,66.4,74.6,78.4z M115.6,78.4
		c0,10.6-8.6,19.1-19.1,19.1S77.3,89,77.3,78.4s8.6-19.1,19.1-19.1S115.6,67.9,115.6,78.4z"/>
	<path d="M70,106.6c2,1.9,5.2,1.9,7.2-0.1s2-5.2,0.1-7.2l-8.9-8.9V61.6c0-2.8-2.3-5.1-5.1-5.1H24.7c0,3.2,1.3,6.1,3.4,8.2L70,106.6z
		 M44.8,66.8h13.3v13.3L44.8,66.8z"/>
	<path d="M129,108c-10.6,0-20.9,2-30.6,6.1c-9.8,4-18.5,9.9-26,17.4L59.9,144h3.8l10.6-10.6c7.2-7.2,15.7-12.9,25.1-16.8
		c9.4-3.9,19.4-5.9,29.6-5.9H144V108H129z"/>
</g>
<rect class="st0" width="144" height="144"/>
</svg>
