<?xml version="1.0" encoding="utf-8"?>
<!-- Generator: Adobe Illustrator 27.0.0, SVG Export Plug-In . SVG Version: 6.00 Build 0)  -->
<svg version="1.1" id="Pictogram" xmlns="http://www.w3.org/2000/svg" xmlns:xlink="http://www.w3.org/1999/xlink" x="0px" y="0px"
	 viewBox="0 0 144 144" style="enable-background:new 0 0 144 144;" xml:space="preserve">
<style type="text/css">
	.st0{fill:none;}
</style>
<g>
	<rect x="76.1" y="86.3" transform="matrix(0.7071 -0.7071 0.7071 0.7071 -58.9363 88.5551)" width="2.7" height="58.2"/>
	<circle cx="37.3" cy="16.7" r="9"/>
	<circle cx="55.2" cy="34.7" r="9"/>
	<circle cx="73.3" cy="52.7" r="9"/>
	<circle cx="91.3" cy="70.7" r="9"/>
	<polygon points="0,36.1 0,39.9 32.7,72.6 34.7,70.7 	"/>
	<path d="M107.2,85.3h-19L2.9,0H0v0.9l86.3,86.3l0.8,0.8h1.1H106c4.7,4.9,8.3,10.4,10.8,16.6c2.6,6.3,3.9,13,3.9,19.8
		c0,1.1,0,2.3-0.1,3.4c-0.2,3.9-3.5,6-6.4,6c-1.2,0-2.8-0.3-4.4-1.9L0,22.3v3.8l107.9,107.8c1.8,1.8,4.1,2.6,6.3,2.6
		c4.4,0,8.7-3.3,9.1-8.5c0.1-1.2,0.1-2.4,0.1-3.6c0-7.1-1.4-14.2-4.1-20.9C116.7,97,112.6,90.7,107.2,85.3z"/>
</g>
<rect class="st0" width="144" height="144"/>
</svg>
