<?xml version="1.0" encoding="utf-8"?>
<!-- Generator: Adobe Illustrator 27.0.0, SVG Export Plug-In . SVG Version: 6.00 Build 0)  -->
<svg version="1.1" id="Pictogram" xmlns="http://www.w3.org/2000/svg" xmlns:xlink="http://www.w3.org/1999/xlink" x="0px" y="0px"
	 viewBox="0 0 144 144" style="enable-background:new 0 0 144 144;" xml:space="preserve">
<style type="text/css">
	.st0{fill:none;}
</style>
<g>
	<circle cx="86.1" cy="36" r="9"/>
	<path d="M115.9,120c-2,2.7-4.1,5.5-4.1,8.5V144h2.7v-15.5c0-2.1,1.8-4.6,3.6-6.9c1-1.3,2-2.7,2.8-4.1c0.8,1.4,1.8,2.7,2.8,4.1
		c1.8,2.3,3.6,4.8,3.6,6.9V144h2.7v-15.5c0-3-2.1-5.8-4.1-8.5c-1.4-1.9-2.8-3.8-3.4-5.5H144v-2.7h-21.8V82.1
		c2.2-0.6,3.7-2.6,3.7-4.9s-1.6-4.3-3.7-4.9V41.9l2.2-2.2c2-2,2-5.3,0-7.3s-5.3-2-7.3,0l-16.5,16.5H77.1c-1.3,0-2.6,0.5-3.6,1.5
		L41.6,82.3h32.7l11.9-11.9l10.4,10.4c0.9,0.9,2.2,1.5,3.6,1.5h19.2v29.5H86.1V92.6c0-2.8-2.3-5.1-5.1-5.1H51l0,0H36.4l-24.4,24.4H0
		v2.7h119.2C118.7,116.3,117.3,118.2,115.9,120z M102.4,72L89.6,59.1h13.3c1.6,0,3-0.7,3.9-1.8l12.7-12.7V72H102.4z M75.9,111.8
		H26.6l14.1-14.1h35.2V111.8z"/>
</g>
<rect class="st0" width="144" height="144"/>
</svg>
