<?xml version="1.0" encoding="utf-8"?>
<!-- Generator: Adobe Illustrator 27.0.0, SVG Export Plug-In . SVG Version: 6.00 Build 0)  -->
<svg version="1.1" id="Pictogram" xmlns="http://www.w3.org/2000/svg" xmlns:xlink="http://www.w3.org/1999/xlink" x="0px" y="0px"
	 viewBox="0 0 144 144" style="enable-background:new 0 0 144 144;" xml:space="preserve">
<style type="text/css">
	.st0{fill:none;}
</style>
<g>
	<ellipse cx="102.9" cy="39.9" rx="9" ry="9"/>
	<path d="M66.6,70.9L39.4,43.7C37.1,46,36,48.9,36,51.9v61.3c0,2.8,2.3,5.1,5.1,5.1c2.8,0,5.1-2.3,5.1-5.1V98.6l20.3-20.3
		C68.6,76.2,68.6,73,66.6,70.9z M46.3,84V65.1l9.4,9.4L46.3,84z"/>
	<path d="M97.7,66.9c-1.6,0-3.2,0.1-4.7,0.4V50.1c0-2.3-0.9-4.6-2.6-6.4c-1.7-1.7-3.9-2.6-6.1-2.6H44.1l18,18h20.6v11.6v0
		c-9.5,5.3-15.9,15.4-15.9,27c0,17,13.8,30.9,30.9,30.9s30.9-13.8,30.9-30.9S114.8,66.9,97.7,66.9z M117.6,117.6
		c-5.3,5.3-12.4,8.2-19.9,8.2c-7.5,0-14.6-2.9-19.9-8.2c-5.3-5.3-8.2-12.4-8.2-19.9c0-7.5,2.9-14.6,8.2-19.9
		c1.7-1.7,3.6-3.2,5.7-4.4c0.2,0.3,0.5,0.6,0.7,0.9l16.4,16.4c2,2,5.3,2,7.3,0s2-5.3,0-7.3L94.2,69.8c1.1-0.1,2.3-0.2,3.5-0.2
		c7.5,0,14.6,2.9,19.9,8.2c5.3,5.3,8.2,12.4,8.2,19.9S122.9,112.3,117.6,117.6z"/>
	<path d="M0,66.9v2.7c7.5,0,14.6,2.9,19.9,8.2s8.2,12.4,8.2,19.9c0,7.5-2.9,14.6-8.2,19.9c-5.3,5.3-12.4,8.2-19.9,8.2v2.7
		c17,0,30.9-13.8,30.9-30.9S17,66.9,0,66.9z"/>
	<path d="M20.6,97.7c0-11.4-9.2-20.6-20.6-20.6l0,0v2.7l0,0c9.8,0,17.9,8,17.9,17.9s-8,17.9-17.9,17.9l0,0v2.7l0,0
		C11.4,118.3,20.6,109.1,20.6,97.7z"/>
	<path d="M10.3,97.7C10.3,92,5.7,87.4,0,87.4l0,0v2.7l0,0c4.2,0,7.6,3.4,7.6,7.6c0,4.2-3.4,7.6-7.6,7.6l0,0v2.7l0,0
		C5.7,108,10.3,103.4,10.3,97.7z"/>
</g>
<rect class="st0" width="144" height="144"/>
</svg>
