<?xml version="1.0" encoding="utf-8"?>
<!-- Generator: Adobe Illustrator 27.0.0, SVG Export Plug-In . SVG Version: 6.00 Build 0)  -->
<svg version="1.1" id="Pictogram" xmlns="http://www.w3.org/2000/svg" xmlns:xlink="http://www.w3.org/1999/xlink" x="0px" y="0px"
	 viewBox="0 0 144 144" style="enable-background:new 0 0 144 144;" xml:space="preserve">
<style type="text/css">
	.st0{fill:none;}
</style>
<g>
	<path d="M134,105.1c-1.4-1.4-3.3-2.3-5.5-2.3h-1.4v-5.2h-12.8v2.7h10.1v2.5h-11.4c-2.1,0-4.1,0.9-5.5,2.3c-1.4,1.4-2.3,3.3-2.3,5.5
		c0,2.1,0.9,4.1,2.3,5.5c1.4,1.4,3.3,2.3,5.5,2.3h15.5c2.1,0,4.1-0.9,5.5-2.3c1.4-1.4,2.3-3.3,2.3-5.5
		C136.3,108.4,135.4,106.5,134,105.1z M132.1,114.1c-0.9,0.9-2.2,1.5-3.5,1.5h-15.5c-1.3,0-2.6-0.5-3.5-1.5
		c-0.9-0.9-1.5-2.2-1.5-3.5c0-1.3,0.5-2.6,1.5-3.5c0.9-0.9,2.2-1.5,3.5-1.5h15.5c1.3,0,2.6,0.5,3.5,1.5c0.9,0.9,1.5,2.2,1.5,3.5
		C133.6,111.9,133,113.2,132.1,114.1z"/>
	<path d="M111.2,87.6c1-1,1.5-2.3,1.5-3.6c0-1.3-0.5-2.6-1.5-3.6L82.1,51.2c-1.6-1.6-3.9-2.6-6.4-2.6c-2.5,0-4.7,1-6.4,2.6
		L39.5,81.1h25.5l16.3-16.3l22.7,22.7c1,1,2.3,1.5,3.6,1.5C108.8,89.1,110.2,88.6,111.2,87.6z"/>
	<ellipse cx="91.3" cy="41.1" rx="9" ry="9"/>
	<path d="M83.2,87.7c-0.9-0.9-2.2-1.5-3.6-1.5H34.4L12.6,108H0v10.3l14.7,0c1.4,0,2.7-0.6,3.6-1.5l20.3-20.3h28.5l-13,13
		c-1,1-1.5,2.3-1.5,3.6c0,1.3,0.5,2.6,1.5,3.6c1,1,2.3,1.5,3.6,1.5c1.3,0,2.6-0.5,3.6-1.5L83.2,95c0.9-0.9,1.5-2.2,1.5-3.6
		C84.7,89.9,84.1,88.6,83.2,87.7z"/>
</g>
<rect class="st0" width="144" height="144"/>
</svg>
