<?xml version="1.0" encoding="utf-8"?>
<!-- Generator: Adobe Illustrator 27.0.0, SVG Export Plug-In . SVG Version: 6.00 Build 0)  -->
<svg version="1.1" id="Pictogram" xmlns="http://www.w3.org/2000/svg" xmlns:xlink="http://www.w3.org/1999/xlink" x="0px" y="0px"
	 viewBox="0 0 144 144" style="enable-background:new 0 0 144 144;" xml:space="preserve">
<style type="text/css">
	.st0{fill:none;}
</style>
<g>
	<path d="M54.9,53.4L41.1,67.1V43.7c0-1.3-0.5-2.6-1.5-3.6c-2-2-5.3-2-7.3,0c-1,1-1.5,2.3-1.5,3.6v84.9c0,2.8,2.3,5.1,5.1,5.1
		s5.1-2.3,5.1-5.1V99.8l30.1-30.1L54.9,53.4z"/>
	<circle cx="19.3" cy="84.9" r="9"/>
	<path d="M128.6,55.8H79.2l-44-44c-2-2-5.3-2-7.3,0s-2,5.3,0,7.3l47,47h53.7c2.8,0,5.1-2.3,5.1-5.1
		C133.7,58.1,131.4,55.8,128.6,55.8z"/>
</g>
<rect class="st0" width="144" height="144"/>
</svg>
