<?xml version="1.0" encoding="utf-8"?>
<!-- Generator: Adobe Illustrator 27.0.0, SVG Export Plug-In . SVG Version: 6.00 Build 0)  -->
<svg version="1.1" id="Pictogram" xmlns="http://www.w3.org/2000/svg" xmlns:xlink="http://www.w3.org/1999/xlink" x="0px" y="0px"
	 viewBox="0 0 144 144" style="enable-background:new 0 0 144 144;" xml:space="preserve">
<style type="text/css">
	.st0{fill:none;}
</style>
<g>
	<g>
		<circle cx="91.3" cy="73.3" r="9"/>
		<path d="M59.1,60.6h27c5,0,9-4,9-9c0-2.5-1-4.7-2.6-6.4L64.3,17v25.5l7.8,7.8h-13V15.5c-5.7,0-10.3,4.6-10.3,10.3l0,61.7
			c0,2.8,2.3,5.1,5.1,5.1c2.8,0,5.1-2.3,5.1-5.1C59.2,87.2,59.1,60.6,59.1,60.6z"/>
	</g>
	<path d="M144,124.7c-4,0-6.1-1.5-8-2.8c-1.7-1.2-3.2-2.3-6.4-2.3c-3.2,0-4.7,1.1-6.4,2.3c-1.9,1.3-4,2.8-8,2.8c-4,0-6.1-1.5-8-2.8
		c-1.7-1.2-3.2-2.3-6.4-2.3s-4.7,1.1-6.4,2.3c-1.9,1.3-4,2.8-8,2.8c-4,0-6.1-1.5-8-2.8c-1.7-1.2-3.2-2.3-6.4-2.3s-4.7,1.1-6.4,2.3
		c-1.9,1.3-4,2.8-8,2.8s-6.1-1.5-8-2.8c-1.7-1.2-3.2-2.3-6.4-2.3s-4.7,1.1-6.4,2.3c-1.9,1.3-4,2.8-8,2.8s-6.1-1.5-8-2.8
		c-1.7-1.2-3.2-2.3-6.4-2.3s-4.7,1.1-6.4,2.3c-1.9,1.3-4,2.8-8,2.8V122c3.2,0,4.7-1.1,6.4-2.3c1.9-1.3,4-2.8,8-2.8s6.1,1.5,8,2.8
		c1.7,1.2,3.2,2.3,6.4,2.3s4.7-1.1,6.4-2.3c1.9-1.3,4-2.8,8-2.8s6.1,1.5,8,2.8c1.7,1.2,3.2,2.3,6.4,2.3c3.2,0,4.7-1.1,6.4-2.3
		c1.9-1.3,4-2.8,8-2.8s6.1,1.5,8,2.8c1.7,1.2,3.2,2.3,6.4,2.3s4.7-1.1,6.4-2.3c1.9-1.3,4-2.8,8-2.8c4,0,6.1,1.5,8,2.8
		c1.7,1.2,3.2,2.3,6.4,2.3s4.7-1.1,6.4-2.3c1.9-1.3,4-2.8,8-2.8c4,0,6.1,1.5,8,2.8c1.7,1.2,3.2,2.3,6.4,2.3V124.7z"/>
</g>
<rect class="st0" width="144" height="144"/>
</svg>
