<?xml version="1.0" encoding="utf-8"?>
<!-- Generator: Adobe Illustrator 27.0.0, SVG Export Plug-In . SVG Version: 6.00 Build 0)  -->
<svg version="1.1" id="Pictogram" xmlns="http://www.w3.org/2000/svg" xmlns:xlink="http://www.w3.org/1999/xlink" x="0px" y="0px"
	 viewBox="0 0 144 144" style="enable-background:new 0 0 144 144;" xml:space="preserve">
<style type="text/css">
	.st0{fill:none;}
</style>
<g>
	<circle cx="82.4" cy="32.1" r="9"/>
	<path d="M34.4,64.3c-2.3,2.3-3.4,5.2-3.4,8.2V102l-20.3,20.3c-2,2-2,5.3,0,7.3c2,2,5.3,2,7.3,0l20.3-20.3H67c1.3,0,2.6-0.5,3.6-1.5
		c2-2,2-5.3,0-7.3L34.4,64.3z M54.5,99H41.3V85.8L54.5,99z"/>
	<path d="M144,63.1h-29.5c-0.6-4.4-4.4-7.8-9-7.8h-1.4v3.9H89.6L55.1,24.7c-0.9-0.9-2.2-1.5-3.6-1.5H30.8c-2.8,0-5.1,2.3-5.1,5.1
		s2.3,5.1,5.1,5.1h18.4l7.9,7.9L38,60.7L54.3,77l19.3-19.3L83.8,68c1,1,2.3,1.5,3.6,1.5h16.7v3.9h1.4c4.6,0,8.4-3.4,9-7.8H144V63.1z
		 M106.9,70.6V58.2c2.9,0.6,5,3.2,5,6.2C111.9,67.4,109.8,70,106.9,70.6z"/>
</g>
<rect class="st0" width="144" height="144"/>
</svg>
