<?xml version="1.0" encoding="utf-8"?>
<!-- Generator: Adobe Illustrator 27.0.0, SVG Export Plug-In . SVG Version: 6.00 Build 0)  -->
<svg version="1.1" id="Pictogram" xmlns="http://www.w3.org/2000/svg" xmlns:xlink="http://www.w3.org/1999/xlink" x="0px" y="0px"
	 viewBox="0 0 144 144" style="enable-background:new 0 0 144 144;" xml:space="preserve">
<style type="text/css">
	.st0{fill:none;}
</style>
<g>
	<ellipse cx="52.7" cy="21.9" rx="9" ry="9"/>
	<path d="M130.8,39.5l-1.9,1.9c3,3,3,7.8,0,10.8L97.8,83.3V30.8c0-5.7-4.7-10.4-10.4-10.4v2.7c4.2,0,7.6,3.4,7.6,7.6v4.1H46.5
		L20,8.4c-2-2-5.3-2-7.3,0s-2,5.3,0,7.3L15,18v59.2h2.7V20.7l21.5,21.5v40.5L59,62.9V45.2h36v33.7L76.3,60.1c-2-2-5.3-2-7.3,0
		L41.8,87.3c2.3,2.3,5.2,3.4,8.2,3.4h40.5l-35.7,35.7l1.9,1.9l38.4-38.4v46.4h2.7V87.2l33-33C134.8,50.1,134.8,43.5,130.8,39.5z
		 M63.2,80.4l9.4-9.4l9.4,9.4H63.2z"/>
</g>
<rect class="st0" width="144" height="144"/>
</svg>
