<?xml version="1.0" encoding="utf-8"?>
<!-- Generator: Adobe Illustrator 27.0.0, SVG Export Plug-In . SVG Version: 6.00 Build 0)  -->
<svg version="1.1" id="Pictogram" xmlns="http://www.w3.org/2000/svg" xmlns:xlink="http://www.w3.org/1999/xlink" x="0px" y="0px"
	 viewBox="0 0 144 144" style="enable-background:new 0 0 144 144;" xml:space="preserve">
<style type="text/css">
	.st0{fill:none;}
</style>
<g>
	<ellipse cx="106.7" cy="37.3" rx="9" ry="9"/>
	<path d="M133.7,51.4h-33.5L73.8,25c-2-2-5.3-2-7.3,0s-2,5.3,0,7.3l19.2,19.2H64.3v18h32.1c2.3,0,4.6-0.9,6.4-2.6
		c1.4-1.4,2.3-3.2,2.5-5.1h28.3c2.8,0,5.1-2.3,5.1-5.1C138.9,53.7,136.6,51.4,133.7,51.4z"/>
	<path d="M69.4,131.1c2.8,0,5.1-2.3,5.1-5.1V72H64.3v54C64.3,128.8,66.6,131.1,69.4,131.1z"/>
	<path d="M24,16.3c-2-2-5.3-2-7.3,0s-2,5.3,0,7.3L59.1,66V51.4L24,16.3z"/>
	<rect x="61.7" y="133.6" width="20.6" height="2.7"/>
	<rect x="1.9" y="14.1" transform="matrix(0.7071 -0.7071 0.7071 0.7071 -7.3487 13.1752)" width="20.6" height="2.7"/>
</g>
<rect class="st0" width="144" height="144"/>
</svg>
