<?xml version="1.0" encoding="utf-8"?>
<!-- Generator: Adobe Illustrator 27.0.0, SVG Export Plug-In . SVG Version: 6.00 Build 0)  -->
<svg version="1.1" id="Pictogram" xmlns="http://www.w3.org/2000/svg" xmlns:xlink="http://www.w3.org/1999/xlink" x="0px" y="0px"
	 viewBox="0 0 144 144" style="enable-background:new 0 0 144 144;" xml:space="preserve">
<style type="text/css">
	.st0{fill:none;}
</style>
<g>
	<path d="M106.5,8.4c-0.9-0.9-2.2-1.5-3.6-1.5c-1.4,0-2.7,0.6-3.6,1.5l-2.3,2.3h-73c-0.6,0-1.3,0.2-1.8,0.5c-0.4,0.2-0.7,0.4-1,0.7
		l-1.8,1.8c-1.7,1.7-1.7,4.6,0.1,6.3c1.7,1.6,4.4,1.5,6-0.2l6.5-6.6h62.4L70.9,36.7c-1,1-1.5,2.3-1.5,3.6V72h23.1V45.5h10.3
		c2.8,0,5.1-2.3,5.1-5.1V12.1C108,10.7,107.4,9.4,106.5,8.4z M87,35.2l10.7-10.7v10.7H87z"/>
	<ellipse cx="63" cy="25.7" rx="9" ry="9"/>
	<path d="M69.4,105.9l-24.2,24.2c-2,2-2,5.3,0,7.3s5.3,2,7.3,0l25.7-25.7c1-1,1.5-2.3,1.5-3.6V77.1H69.5L69.4,105.9L69.4,105.9z"/>
	<path d="M82.3,133.7c0,2.8,2.3,5.1,5.1,5.1c2.8,0,5.1-2.3,5.1-5.1V77.1H82.3V133.7z"/>
</g>
<rect class="st0" width="144" height="144"/>
</svg>
