<?xml version="1.0" encoding="utf-8"?>
<!-- Generator: Adobe Illustrator 27.0.0, SVG Export Plug-In . SVG Version: 6.00 Build 0)  -->
<svg version="1.1" id="Pictogram" xmlns="http://www.w3.org/2000/svg" xmlns:xlink="http://www.w3.org/1999/xlink" x="0px" y="0px"
	 viewBox="0 0 144 144" style="enable-background:new 0 0 144 144;" xml:space="preserve">
<style type="text/css">
	.st0{fill:none;}
</style>
<g>
	<g>
		<path d="M84.9,59.9L63.6,38.6h39.3c0-5.7-4.6-10.3-10.3-10.3H30.9c-2.8,0-5.1,2.3-5.1,5.1s2.3,5.1,5.1,5.1H49l38.5,38.5
			c3.5,3.5,9.2,3.5,12.7,0c1.8-1.8,2.6-4.1,2.6-6.4v-27h-18L84.9,59.9z"/>
		<ellipse cx="74.6" cy="83.5" rx="9" ry="9"/>
	</g>
	<path d="M144,111.8l-59.1,12.6c-8.6,1.8-17.3,1.8-25.8,0L0,111.8v2.8l58.5,12.5c4.5,1,9,1.4,13.5,1.4c4.5,0,9-0.5,13.5-1.4
		l58.5-12.6V111.8z"/>
</g>
<rect class="st0" width="144" height="144"/>
</svg>
