<?xml version="1.0" encoding="utf-8"?>
<!-- Generator: Adobe Illustrator 27.0.0, SVG Export Plug-In . SVG Version: 6.00 Build 0)  -->
<svg version="1.1" id="Pictogram" xmlns="http://www.w3.org/2000/svg" xmlns:xlink="http://www.w3.org/1999/xlink" x="0px" y="0px"
	 viewBox="0 0 144 144" style="enable-background:new 0 0 144 144;" xml:space="preserve">
<style type="text/css">
	.st0{fill:none;}
</style>
<g>
	<g>
		<path d="M29.2,96.2l25.4-25.4l-7.3-7.3L22,88.9c-2,2-2,5.3,0,7.3S27.2,98.2,29.2,96.2z"/>
		<path d="M56.5,72.5L9.2,119.8c-2,2-2,5.3,0,7.3c2,2,5.3,2,7.3,0l47.2-47.2L56.5,72.5z"/>
		<path d="M83.6,32.1c2.5,0,4.7-1,6.4-2.6c1.6-1.6,2.6-3.9,2.6-6.4s-1-4.7-2.6-6.4c-1.6-1.6-3.9-2.6-6.4-2.6c-2.5,0-4.7,1-6.4,2.6
			c-1.6,1.6-2.6,3.9-2.6,6.4s1,4.7,2.6,6.4S81.1,32.1,83.6,32.1z"/>
		<path d="M131.2,36H51.7l-13-13c-2-2-5.3-2-7.3,0c-2,2-2,5.3,0,7.3l14.5,14.5c1,1,2.3,1.5,3.6,1.5h15.1L51,59.8l16.4,16.4
			l29.9-29.9h33.9c2.8,0,5.1-2.3,5.1-5.1C136.4,38.3,134,36,131.2,36z"/>
	</g>
	<path d="M47.6,7.9c3.5,0,6.3,2.8,6.3,6.3s-2.8,6.3-6.3,6.3s-6.3-2.8-6.3-6.3S44.1,7.9,47.6,7.9 M47.6,5.1c-5,0-9,4-9,9s4,9,9,9
		s9-4,9-9S52.5,5.1,47.6,5.1L47.6,5.1z"/>
	<g>
		<path d="M138.5,137.6L138.5,137.6c-0.8,0-1.4-0.6-1.4-1.4c0-0.7,0.6-1.4,1.4-1.4h0c0.7,0,1.4,0.6,1.4,1.4
			C139.8,137,139.2,137.6,138.5,137.6z M132.9,137.6L132.9,137.6c-0.8,0-1.4-0.6-1.4-1.4c0-0.7,0.6-1.4,1.4-1.4h0
			c0.7,0,1.4,0.6,1.4,1.4C134.3,137,133.7,137.6,132.9,137.6z M127.4,137.6L127.4,137.6c-0.8,0-1.4-0.6-1.4-1.4
			c0-0.7,0.6-1.4,1.4-1.4h0c0.7,0,1.4,0.6,1.4,1.4C128.8,137,128.1,137.6,127.4,137.6z M121.9,137.6L121.9,137.6
			c-0.8,0-1.4-0.6-1.4-1.4c0-0.7,0.6-1.4,1.4-1.4h0c0.7,0,1.4,0.6,1.4,1.4C123.2,137,122.6,137.6,121.9,137.6z M116.3,137.6
			L116.3,137.6c-0.8,0-1.4-0.6-1.4-1.4c0-0.7,0.6-1.4,1.4-1.4h0c0.7,0,1.4,0.6,1.4,1.4C117.7,137,117.1,137.6,116.3,137.6z
			 M110.8,137.6L110.8,137.6c-0.8,0-1.4-0.6-1.4-1.4c0-0.7,0.6-1.4,1.4-1.4h0c0.7,0,1.4,0.6,1.4,1.4
			C112.1,137,111.5,137.6,110.8,137.6z M105.2,137.6L105.2,137.6c-0.8,0-1.4-0.6-1.4-1.4c0-0.7,0.6-1.4,1.4-1.4h0
			c0.7,0,1.4,0.6,1.4,1.4C106.6,137,106,137.6,105.2,137.6z M99.7,137.6L99.7,137.6c-0.8,0-1.4-0.6-1.4-1.4c0-0.7,0.6-1.4,1.4-1.4h0
			c0.7,0,1.4,0.6,1.4,1.4C101.1,137,100.5,137.6,99.7,137.6z M94.2,137.6L94.2,137.6c-0.8,0-1.4-0.6-1.4-1.4c0-0.7,0.6-1.4,1.4-1.4
			h0c0.7,0,1.4,0.6,1.4,1.4C95.5,137,94.9,137.6,94.2,137.6z M88.6,137.6L88.6,137.6c-0.8,0-1.4-0.6-1.4-1.4c0-0.7,0.6-1.4,1.4-1.4
			h0c0.7,0,1.4,0.6,1.4,1.4C90,137,89.4,137.6,88.6,137.6z M83.1,137.6L83.1,137.6c-0.8,0-1.4-0.6-1.4-1.4c0-0.7,0.6-1.4,1.4-1.4h0
			c0.7,0,1.4,0.6,1.4,1.4C84.4,137,83.8,137.6,83.1,137.6z M77.5,137.6L77.5,137.6c-0.8,0-1.4-0.6-1.4-1.4c0-0.7,0.6-1.4,1.4-1.4h0
			c0.7,0,1.4,0.6,1.4,1.4C78.9,137,78.3,137.6,77.5,137.6z M72,137.6L72,137.6c-0.8,0-1.4-0.6-1.4-1.4c0-0.7,0.6-1.4,1.4-1.4h0
			c0.7,0,1.4,0.6,1.4,1.4C73.4,137,72.8,137.6,72,137.6z M66.5,137.6L66.5,137.6c-0.8,0-1.4-0.6-1.4-1.4c0-0.7,0.6-1.4,1.4-1.4h0
			c0.7,0,1.4,0.6,1.4,1.4C67.8,137,67.2,137.6,66.5,137.6z M60.9,137.6L60.9,137.6c-0.8,0-1.4-0.6-1.4-1.4c0-0.7,0.6-1.4,1.4-1.4h0
			c0.7,0,1.4,0.6,1.4,1.4C62.3,137,61.7,137.6,60.9,137.6z M55.4,137.6L55.4,137.6c-0.8,0-1.4-0.6-1.4-1.4c0-0.7,0.6-1.4,1.4-1.4h0
			c0.7,0,1.4,0.6,1.4,1.4C56.8,137,56.1,137.6,55.4,137.6z M49.9,137.6L49.9,137.6c-0.8,0-1.4-0.6-1.4-1.4c0-0.7,0.6-1.4,1.4-1.4h0
			c0.7,0,1.4,0.6,1.4,1.4C51.2,137,50.6,137.6,49.9,137.6z M44.3,137.6L44.3,137.6c-0.8,0-1.4-0.6-1.4-1.4c0-0.7,0.6-1.4,1.4-1.4h0
			c0.7,0,1.4,0.6,1.4,1.4C45.7,137,45.1,137.6,44.3,137.6z M38.8,137.6L38.8,137.6c-0.8,0-1.4-0.6-1.4-1.4c0-0.7,0.6-1.4,1.4-1.4h0
			c0.7,0,1.4,0.6,1.4,1.4C40.1,137,39.5,137.6,38.8,137.6z M33.2,137.6L33.2,137.6c-0.8,0-1.4-0.6-1.4-1.4c0-0.7,0.6-1.4,1.4-1.4h0
			c0.7,0,1.4,0.6,1.4,1.4C34.6,137,34,137.6,33.2,137.6z M27.7,137.6L27.7,137.6c-0.8,0-1.4-0.6-1.4-1.4c0-0.7,0.6-1.4,1.4-1.4h0
			c0.7,0,1.4,0.6,1.4,1.4C29.1,137,28.5,137.6,27.7,137.6z M22.2,137.6L22.2,137.6c-0.8,0-1.4-0.6-1.4-1.4c0-0.7,0.6-1.4,1.4-1.4h0
			c0.7,0,1.4,0.6,1.4,1.4C23.5,137,22.9,137.6,22.2,137.6z M16.6,137.6L16.6,137.6c-0.8,0-1.4-0.6-1.4-1.4c0-0.7,0.6-1.4,1.4-1.4h0
			c0.7,0,1.4,0.6,1.4,1.4C18,137,17.4,137.6,16.6,137.6z M11.1,137.6L11.1,137.6c-0.8,0-1.4-0.6-1.4-1.4c0-0.7,0.6-1.4,1.4-1.4h0
			c0.7,0,1.4,0.6,1.4,1.4C12.4,137,11.8,137.6,11.1,137.6z M5.5,137.6L5.5,137.6c-0.8,0-1.4-0.6-1.4-1.4c0-0.7,0.6-1.4,1.4-1.4h0
			c0.7,0,1.4,0.6,1.4,1.4C6.9,137,6.3,137.6,5.5,137.6z"/>
		<path d="M144,134.9C144,134.9,144,134.9,144,134.9c-0.8,0-1.4,0.6-1.4,1.4c0,0.7,0.6,1.4,1.4,1.4h0l0,0V134.9z"/>
		<path d="M0,134.9v2.7l0,0c0.7,0,1.4-0.6,1.4-1.4C1.4,135.5,0.7,134.9,0,134.9z"/>
	</g>
</g>
<rect class="st0" width="144" height="144"/>
</svg>
