<?xml version="1.0" encoding="utf-8"?>
<!-- Generator: Adobe Illustrator 27.0.0, SVG Export Plug-In . SVG Version: 6.00 Build 0)  -->
<svg version="1.1" id="Pictogram" xmlns="http://www.w3.org/2000/svg" xmlns:xlink="http://www.w3.org/1999/xlink" x="0px" y="0px"
	 viewBox="0 0 144 144" style="enable-background:new 0 0 144 144;" xml:space="preserve">
<style type="text/css">
	.st0{fill:none;}
</style>
<g>
	<g>
		<path d="M29.2,101.3l25.4-25.4l-7.3-7.3L22,94c-2,2-2,5.3,0,7.3S27.2,103.3,29.2,101.3z"/>
		<path d="M56.5,77.7L9.2,124.9c-2,2-2,5.3,0,7.3c2,2,5.3,2,7.3,0L63.8,85L56.5,77.7z"/>
		<path d="M83.6,37.3c2.5,0,4.7-1,6.4-2.6c1.6-1.6,2.6-3.9,2.6-6.4s-1-4.7-2.6-6.4c-1.6-1.6-3.9-2.6-6.4-2.6c-2.5,0-4.7,1-6.4,2.6
			c-1.6,1.6-2.6,3.9-2.6,6.4s1,4.7,2.6,6.4C78.8,36.3,81.1,37.3,83.6,37.3z"/>
		<path d="M131.2,41.1H51.7l-13-13c-2-2-5.3-2-7.3,0c-2,2-2,5.3,0,7.3l14.5,14.5c1,1,2.3,1.5,3.6,1.5h15.1L51,65l16.4,16.4
			l29.9-29.9h33.9c2.8,0,5.1-2.3,5.1-5.1C136.4,43.4,134,41.1,131.2,41.1z"/>
	</g>
	<path d="M47.6,13c3.5,0,6.3,2.8,6.3,6.3s-2.8,6.3-6.3,6.3s-6.3-2.8-6.3-6.3S44.1,13,47.6,13 M47.6,10.3c-5,0-9,4-9,9s4,9,9,9
		s9-4,9-9S52.5,10.3,47.6,10.3L47.6,10.3z"/>
</g>
<rect class="st0" width="144" height="144"/>
</svg>
