<?xml version="1.0" encoding="utf-8"?>
<!-- Generator: Adobe Illustrator 27.0.0, SVG Export Plug-In . SVG Version: 6.00 Build 0)  -->
<svg version="1.1" id="Pictogram" xmlns="http://www.w3.org/2000/svg" xmlns:xlink="http://www.w3.org/1999/xlink" x="0px" y="0px"
	 viewBox="0 0 144 144" style="enable-background:new 0 0 144 144;" xml:space="preserve">
<style type="text/css">
	.st0{fill:none;}
</style>
<g>
	<circle cx="68.1" cy="34.7" r="9"/>
	<circle cx="64.3" cy="83.6" r="9"/>
	<path d="M76.1,62.1L52.2,38.2c-4.5-4.5-11.9-4.5-16.4,0L14.7,59.3l16.4,16.4l21.9-22L79.4,80c2.3,2.3,5.2,3.4,8.2,3.4h41.7
		l-21.3-21.3H76.1z"/>
	<path d="M144,19.7l-16.5,16.5c-1,1-1.5,2.3-1.5,3.6v18.4l-19.3-19.3V10.3c0-2.8-2.3-5.1-5.1-5.1c-2.8,0-5.1,2.3-5.1,5.1v30.9
		c0,1.4,0.6,2.7,1.5,3.6l35,35c2.3-2.3,3.4-5.2,3.4-8.2V42l7.7-7.7L144,19.7L144,19.7z"/>
	<path d="M47.3,99.2L11.1,63c-2.3,2.3-3.4,5.2-3.4,8.2v29.4l0.1,0L0,108.4V123l16.5-16.5c1-1,1.5-2.3,1.5-3.6V84.4L38.6,105v28.7
		c0,2.8,2.3,5.1,5.1,5.1c2.8,0,5.1-2.3,5.1-5.1v-30.9C48.8,101.4,48.3,100.2,47.3,99.2z"/>
</g>
<rect class="st0" width="144" height="144"/>
</svg>
