<?xml version="1.0" encoding="utf-8"?>
<!-- Generator: Adobe Illustrator 27.0.0, SVG Export Plug-In . SVG Version: 6.00 Build 0)  -->
<svg version="1.1" id="Pictogram" xmlns="http://www.w3.org/2000/svg" xmlns:xlink="http://www.w3.org/1999/xlink" x="0px" y="0px"
	 viewBox="0 0 144 144" style="enable-background:new 0 0 144 144;" xml:space="preserve">
<style type="text/css">
	.st0{fill:none;}
</style>
<g>
	<circle cx="33.4" cy="20.6" r="9"/>
	<path d="M48.7,72h25.5L38.3,36.1c-1.6-1.6-3.9-2.6-6.4-2.6c-5,0-9,4-9,9c0,2.5,1,4.7,2.6,6.4L48.7,72z"/>
	<path d="M109.7,122c2,2,5.3,2,7.3,0s2-5.3,0-7.3L79.4,77.2H64.8L109.7,122z"/>
	<path d="M126.6,124.3c-4.3,4.3-10,6.7-16.1,6.7c-6.1,0-11.8-2.4-16.1-6.7L16.3,46.2l-1.9,1.9l78.1,78.1c4.8,4.8,11.2,7.5,18.1,7.5
		c6.8,0,13.2-2.6,18.1-7.5L126.6,124.3z"/>
</g>
<rect class="st0" width="144" height="144"/>
</svg>
