<?xml version="1.0" encoding="utf-8"?>
<!-- Generator: Adobe Illustrator 27.0.0, SVG Export Plug-In . SVG Version: 6.00 Build 0)  -->
<svg version="1.1" id="Pictogram" xmlns="http://www.w3.org/2000/svg" xmlns:xlink="http://www.w3.org/1999/xlink" x="0px" y="0px"
	 viewBox="0 0 144 144" style="enable-background:new 0 0 144 144;" xml:space="preserve">
<style type="text/css">
	.st0{fill:none;}
</style>
<g>
	<path d="M102.9,77.3c6.1,0,11.9,2.4,16.3,6.7c4.3,4.3,6.7,10.1,6.7,16.3c0,6.1-2.4,11.9-6.7,16.3c-4.3,4.3-10.1,6.7-16.3,6.7
		c-6.1,0-11.9-2.4-16.3-6.7s-6.7-10.1-6.7-16.3c0-6.1,2.4-11.9,6.7-16.3S96.7,77.3,102.9,77.3 M102.9,74.6
		c-14.2,0-25.7,11.5-25.7,25.7S88.6,126,102.9,126s25.7-11.5,25.7-25.7S117.1,74.6,102.9,74.6L102.9,74.6z"/>
	<path d="M30.9,28.4c6.1,0,11.9,2.4,16.3,6.7s6.7,10.1,6.7,16.3s-2.4,11.9-6.7,16.3S37,74.4,30.9,74.4S19,72,14.6,67.7
		S7.9,57.6,7.9,51.4s2.4-11.9,6.7-16.3C18.9,30.8,24.7,28.4,30.9,28.4 M30.9,25.7c-14.2,0-25.7,11.5-25.7,25.7s11.5,25.7,25.7,25.7
		c14.2,0,25.7-11.5,25.7-25.7S45.1,25.7,30.9,25.7L30.9,25.7z"/>
	<g>
		<path d="M114.7,53.2v-21c0-2.3-0.8-4.7-2.6-6.5c-1.8-1.8-4.1-2.6-6.4-2.6H69.4l18,18h17v14.1c0,1.4,0.6,2.7,1.5,3.7l16.3,16.4
			c2,2,5.3,2,7.3,0c2-2,2-5.3,0-7.3L114.7,53.2z"/>
		<ellipse cx="124.7" cy="21.9" rx="9" ry="9"/>
		<path d="M64.7,25.6c-2.3,2.3-3.4,5.2-3.4,8.2v61.3c0,2.8,2.3,5.1,5.1,5.1c2.8,0,5.1-2.3,5.1-5.1V80.5L92,60.1c2-2,2-5.3,0-7.3
			L64.7,25.6z M71.6,47.1l9.4,9.4L71.6,66V47.1z"/>
	</g>
	<polygon points="53,106.7 90.3,144 94.1,144 54.1,104 31.6,104 0,72.4 0,76.3 30.5,106.7 	"/>
</g>
<rect class="st0" width="144" height="144"/>
</svg>
