<?xml version="1.0" encoding="utf-8"?>
<!-- Generator: Adobe Illustrator 27.0.0, SVG Export Plug-In . SVG Version: 6.00 Build 0)  -->
<svg version="1.1" id="Pictogram" xmlns="http://www.w3.org/2000/svg" xmlns:xlink="http://www.w3.org/1999/xlink" x="0px" y="0px"
	 viewBox="0 0 144 144" style="enable-background:new 0 0 144 144;" xml:space="preserve">
<style type="text/css">
	.st0{fill:none;}
</style>
<g>
	<path d="M61.6,30.3H45.7v11.9h23c-0.5,0.1,1.1-0.1,2.2-0.4c0.7-0.2,1.4-0.7,2-1.3c0.6-0.6,1-1.3,1.3-2s0.4-1.5,0.4-2.2
		s-0.1-1.5-0.4-2.2s-0.7-1.4-1.3-2L49.6,8.7c-1.3-1.3-3.5-1.3-4.8,0c-1.3,1.3-1.3,3.5,0,4.8L61.6,30.3z"/>
	<ellipse cx="82.4" cy="31.2" rx="6" ry="6"/>
	<path d="M11.3,69.6c0.9,0,1.7-0.3,2.4-1L42.3,40v-9.6L8.9,63.8c-0.7,0.7-1,1.5-1,2.4c0,0.9,0.3,1.7,1,2.4
		C9.6,69.2,10.5,69.6,11.3,69.6z"/>
	<g>
		<path d="M91.4,84.5l-30.1,30.1c-1.3,1.3-1.3,3.5,0,4.8c1.3,1.3,3.5,1.3,4.8,0l25.3-25.3l14.4,14.4v19.1c0,1.9,1.5,3.4,3.4,3.4
			s3.4-1.5,3.4-3.4v-20.5c0-0.9-0.4-1.8-1-2.4L91.4,84.5z"/>
		<path d="M127.1,59.5c-2.3-2.3-6.1-2.3-8.4,0c-2.3,2.3-2.3,6.1,0,8.4s6.1,2.3,8.4,0C129.4,65.6,129.4,61.8,127.1,59.5z"/>
		<path d="M118.1,71.1l-6.6-6.6c-0.7-0.7-1.5-1-2.4-1H95.4c-0.9,0-1.7,0.3-2.4,1l-9.6,9.6c-0.3,0.3-0.5,0.7-0.7,1.1H51.4v2.7h31.2
			c0.2,0.4,0.4,0.7,0.7,1.1c0.7,0.7,1.5,1,2.4,1s1.7-0.3,2.4-1l8.6-8.6h8.8L93.8,82.1L104.6,93L118,79.6
			C120.4,77.2,120.4,73.5,118.1,71.1z"/>
	</g>
	<path d="M129,136.4H83.8v-2.7H129c2.5,0,4.6-2.1,4.6-4.6h2.7C136.3,133.1,133,136.4,129,136.4z"/>
	<path d="M73.8,136.4c-1.9,0-3.8-0.7-5.2-2.1L33.1,98.8l1.9-1.9l35.5,35.5c1.8,1.8,4.7,1.8,6.5,0l1.9,1.9
		C77.5,135.7,75.7,136.4,73.8,136.4z"/>
	<path d="M78,51.9l-2.7,0.2c0.1,0.9-0.1,1.8-0.6,2.7c-0.6,1.1-1.6,1.8-2.8,2.1L0,76.2V79l72.6-19.5c1.9-0.5,3.5-1.7,4.4-3.4
		C77.8,54.8,78.1,53.4,78,51.9z"/>
</g>
<rect class="st0" width="144" height="144"/>
</svg>
