<?xml version="1.0" encoding="utf-8"?>
<!-- Generator: Adobe Illustrator 27.0.0, SVG Export Plug-In . SVG Version: 6.00 Build 0)  -->
<svg version="1.1" id="Pictogram" xmlns="http://www.w3.org/2000/svg" xmlns:xlink="http://www.w3.org/1999/xlink" x="0px" y="0px"
	 viewBox="0 0 144 144" style="enable-background:new 0 0 144 144;" xml:space="preserve">
<style type="text/css">
	.st0{fill:none;}
</style>
<g>
	<path d="M126.4,51.4c0,0,0.1,0.1,0.1,0.1c0,0,0,0,0.1,0c0,0,0.1,0.1,0.1,0.1c0,0,0,0,0.1,0c0.1,0,0.1,0.1,0.2,0.1c0,0,0,0,0,0
		c0.1,0.1,0.3,0.2,0.4,0.3c0,0,0,0,0,0c0.1,0,0.1,0.1,0.2,0.1c0,0,0,0,0,0c0.1,0,0.1,0.1,0.2,0.1c0,0,0,0,0,0c0.1,0,0.1,0.1,0.2,0.1
		c0,0,0,0,0,0c0.2,0.1,0.3,0.2,0.5,0.3l0,0c0.1,0,0.2,0.1,0.2,0.1c0,0,0,0,0,0c0.1,0,0.1,0.1,0.2,0.1c0,0,0,0,0.1,0
		c0.1,0,0.2,0.1,0.2,0.1c0,0,0,0,0,0c1.2,0.5,2.7,0.8,4.6,0.8v-2.7c-1.6,0-2.8-0.3-3.8-0.7c-0.9-0.4-1.7-1-2.6-1.6
		c-0.1-0.1-0.2-0.1-0.3-0.2L109.7,18c-0.9-1.6-2.6-2.6-4.5-2.6s-3.6,1-4.5,2.6l-17.9,31c-0.1,0-0.1,0.1-0.2,0.1
		c-1.6,1.1-3.1,2.1-6,2.1V54c1.5,0,2.6-0.2,3.7-0.5l0,0l0,0c1.3-0.4,2.3-0.9,3.2-1.5c0,0,0,0,0,0c0.2-0.2,0.5-0.3,0.7-0.5
		c0,0,0,0,0,0c0.1,0,0.1-0.1,0.2-0.1c0,0,0,0,0,0c0.1,0,0.1-0.1,0.2-0.1c1.7-1.2,3.2-2.3,6.4-2.3s4.7,1.1,6.4,2.3
		c1.9,1.3,4,2.8,8,2.8s6.1-1.5,8-2.8c1.7-1.2,3.2-2.3,6.4-2.3c2.7,0,4.2,0.8,5.6,1.8l0,0c0.3,0.2,0.5,0.4,0.8,0.5c0,0,0,0,0.1,0
		C126.2,51.2,126.3,51.3,126.4,51.4C126.4,51.3,126.4,51.3,126.4,51.4z M119.7,46.1c-4,0-6.1,1.5-8,2.8c-0.3,0.2-0.6,0.5-1,0.7
		c-1.4,0.9-2.9,1.6-5.4,1.6c-3.2,0-4.7-1.1-6.4-2.3c-0.4-0.3-0.8-0.6-1.3-0.9c-1.6-1-3.6-1.9-6.7-1.9c-1.4,0-2.6,0.2-3.6,0.5
		L103,19.4c0.4-0.8,1.3-1.2,2.1-1.2s1.7,0.5,2.1,1.2L123,46.5C122.1,46.3,121,46.1,119.7,46.1z"/>
	<g>
		<g>
			<circle cx="79.2" cy="76.2" r="9"/>
			<path d="M144,113.1c-4,0-6.1-1.5-8-2.8c-1.7-1.2-3.2-2.3-6.4-2.3c-3.2,0-4.7,1.1-6.4,2.3c-1.9,1.3-4,2.8-8,2.8
				c-4,0-6.1-1.5-8-2.8c-1.7-1.2-3.2-2.3-6.4-2.3s-4.7,1.1-6.4,2.3c-1.9,1.3-4,2.8-8,2.8c-4,0-6.1-1.5-8-2.8
				c-1.7-1.2-3.2-2.3-6.4-2.3s-4.7,1.1-6.4,2.3c-1.9,1.3-4,2.8-8,2.8s-6.1-1.5-8-2.8c-1.7-1.2-3.2-2.3-6.4-2.3s-4.7,1.1-6.4,2.3
				c-1.9,1.3-4,2.8-8,2.8s-6.1-1.5-8-2.8c-1.7-1.2-3.2-2.3-6.4-2.3s-4.7,1.1-6.4,2.3c-1.9,1.3-4,2.8-8,2.8v-2.7
				c3.2,0,4.7-1.1,6.4-2.3c1.9-1.3,4-2.8,8-2.8s6.1,1.5,8,2.8c1.7,1.2,3.2,2.3,6.4,2.3s4.7-1.1,6.4-2.3c1.9-1.3,4-2.8,8-2.8
				s6.1,1.5,8,2.8c1.7,1.2,3.2,2.3,6.4,2.3c3.2,0,4.7-1.1,6.4-2.3c1.9-1.3,4-2.8,8-2.8s6.1,1.5,8,2.8c1.7,1.2,3.2,2.3,6.4,2.3
				s4.7-1.1,6.4-2.3c1.9-1.3,4-2.8,8-2.8c4,0,6.1,1.5,8,2.8c1.7,1.2,3.2,2.3,6.4,2.3s4.7-1.1,6.4-2.3c1.9-1.3,4-2.8,8-2.8
				c4,0,6.1,1.5,8,2.8c1.7,1.2,3.2,2.3,6.4,2.3V113.1z"/>
			<path d="M137.6,97.8c-1.9-1.3-4-2.8-8-2.8c-4,0-6.1,1.5-8,2.8c-1.5,1.1-2.8,2-5.2,2.3c0.1-0.1,0.2-0.1,0.2-0.2c2-2,2-5.3,0-7.3
				c-1-1-2.3-1.5-3.6-1.5H74.1L50.1,67c-1.7-1.7-4.5-2-6.6-0.6L26.6,78.1c-2.3,1.6-2.9,4.8-1.3,7.2c1.6,2.3,4.8,2.9,7.2,1.3
				l13.4-9.3l7.7,7.7l-17.3,12c-0.4,0.3-0.7,0.5-1.1,0.8c-1.7,1.2-3.2,2.3-6.4,2.3s-4.7-1.1-6.4-2.3c-1.9-1.3-4-2.8-8-2.8
				s-6.1,1.5-8,2.8c-1.8,1.2-3.3,2.3-6.4,2.3v2.7c4,0,6.1-1.5,8-2.8c1.7-1.3,3.2-2.3,6.4-2.3s4.7,1.1,6.4,2.3c1.9,1.3,4,2.8,8,2.8
				s6.1-1.5,8-2.8c1.7-1.2,3.2-2.3,6.4-2.3s4.7,1.1,6.4,2.3c1.9,1.3,4,2.8,8,2.8s6.1-1.5,8-2.8c1.7-1.2,3.2-2.3,6.4-2.3
				s4.7,1.1,6.4,2.3c1.9,1.3,4,2.8,8,2.8c4,0,6.1-1.5,8-2.8c1.7-1.2,3.2-2.3,6.4-2.3s4.7,1.1,6.4,2.3c1.9,1.3,4,2.8,8,2.8
				c4,0,6.1-1.5,8-2.8c1.7-1.2,3.2-2.3,6.4-2.3c3.2,0,4.7,1.1,6.4,2.3c1.9,1.3,4,2.8,8,2.8v-2.7C140.8,100.1,139.3,99.1,137.6,97.8z
				"/>
		</g>
	</g>
</g>
<rect class="st0" width="144" height="144"/>
</svg>
