<?xml version="1.0" encoding="utf-8"?>
<!-- Generator: Adobe Illustrator 27.0.0, SVG Export Plug-In . SVG Version: 6.00 Build 0)  -->
<svg version="1.1" id="Pictogram" xmlns="http://www.w3.org/2000/svg" xmlns:xlink="http://www.w3.org/1999/xlink" x="0px" y="0px"
	 viewBox="0 0 144 144" style="enable-background:new 0 0 144 144;" xml:space="preserve">
<style type="text/css">
	.st0{fill:none;}
</style>
<g>
	<path d="M57.6,71.2l-47.3,47.3c-2,2-2,5.3,0,7.3c2,2,5.3,2,7.3,0l20.3-20.3h41.5c1.3,0,2.6-0.5,3.6-1.5c1-1,1.5-2.3,1.5-3.6
		c0-1.3-0.5-2.6-1.5-3.6L57.6,71.2z M57.6,85.7l9.4,9.4H48.2L57.6,85.7z"/>
	<circle cx="105.6" cy="39.8" r="9"/>
	<path d="M129.5,57.9c-0.9-0.7-2-1-3-1s-2.1,0.3-3,1c-2.7,2.1-4.8,4.9-5.9,8.2h-4.7L78.3,31.6C77.3,30.6,76,30,74.6,30H54.1
		c-2.8,0-5.1,2.3-5.1,5.1s2.3,5.1,5.1,5.1h18.4l7.9,7.9L61.2,67.5l16.4,16.4l19.3-19.2L107,74.9c1,1,2.3,1.5,3.6,1.5h6.7
		c1.1,3.5,3.2,6.5,6.1,8.7c0.9,0.7,2,1,3,1s2.1-0.3,3-1c4.1-3.1,6.8-8,6.8-13.6C136.3,65.9,133.6,61,129.5,57.9z M127.9,82.9
		c-0.4,0.3-0.9,0.5-1.4,0.5c-0.5,0-1-0.2-1.4-0.5c-1.7-1.3-3.2-3-4.2-4.9c-1-2-1.6-4.2-1.6-6.5c0-2.3,0.5-4.5,1.6-6.5
		c1-1.9,2.4-3.6,4.2-4.9c0.4-0.3,0.9-0.5,1.4-0.5c0.5,0,1,0.2,1.4,0.5c1.7,1.3,3.2,3,4.2,4.9c1,2,1.6,4.2,1.6,6.5s-0.5,4.5-1.6,6.5
		C131,79.9,129.6,81.6,127.9,82.9z"/>
</g>
<rect class="st0" width="144" height="144"/>
</svg>
