<?xml version="1.0" encoding="utf-8"?>
<!-- Generator: Adobe Illustrator 27.0.0, SVG Export Plug-In . SVG Version: 6.00 Build 0)  -->
<svg version="1.1" id="Pictogram" xmlns="http://www.w3.org/2000/svg" xmlns:xlink="http://www.w3.org/1999/xlink" x="0px" y="0px"
	 viewBox="0 0 144 144" style="enable-background:new 0 0 144 144;" xml:space="preserve">
<style type="text/css">
	.st0{fill:none;}
</style>
<g>
	<ellipse cx="16.7" cy="63" rx="9" ry="9"/>
	<path d="M137.7,0h-3.8L59.2,74.6H24.4c-6.4,0-11.6,5.2-11.6,11.6c0,3.2,1.3,6.1,3.4,8.2l21.4,21.4H0v2.7h144v-2.7h-42L78.4,92.2
		c-2-2-5.3-2-7.3,0l-23.6,23.6h-7.2l15-15L39.5,84.9H144v-2.7H55.5L137.7,0z M74.8,103.1l12.7,12.7H62.1L74.8,103.1z"/>
</g>
<rect class="st0" width="144" height="144"/>
</svg>
