<?xml version="1.0" encoding="utf-8"?>
<!-- Generator: Adobe Illustrator 27.0.0, SVG Export Plug-In . SVG Version: 6.00 Build 0)  -->
<svg version="1.1" id="Pictogram" xmlns="http://www.w3.org/2000/svg" xmlns:xlink="http://www.w3.org/1999/xlink" x="0px" y="0px"
	 viewBox="0 0 144 144" style="enable-background:new 0 0 144 144;" xml:space="preserve">
<style type="text/css">
	.st0{fill:none;}
</style>
<g>
	<ellipse cx="43.4" cy="15.4" rx="9" ry="9"/>
	<path d="M17.9,132.4c-0.7,2.8,0.9,5.6,3.6,6.3s5.6-0.9,6.3-3.6L44,74.6H33.4L17.9,132.4z"/>
	<path d="M56.6,74.6H46L62.2,135c0.7,2.8,3.6,4.4,6.3,3.6s4.4-3.6,3.6-6.3L56.6,74.6z"/>
	<path d="M113.1,28.3H18c-2.8,0-5.1,2.3-5.1,5.1s2.3,5.1,5.1,5.1h15.4v30.9h23.1V45.8l5.8,5.8c2,2,5.3,2,7.3,0L90.2,31h22.9V28.3z
		 M66,40.7L56.3,31h19.4L66,40.7z"/>
</g>
<rect class="st0" width="144" height="144"/>
</svg>
