<?xml version="1.0" encoding="utf-8"?>
<!-- Generator: Adobe Illustrator 27.0.0, SVG Export Plug-In . SVG Version: 6.00 Build 0)  -->
<svg version="1.1" id="Pictogram" xmlns="http://www.w3.org/2000/svg" xmlns:xlink="http://www.w3.org/1999/xlink" x="0px" y="0px"
	 viewBox="0 0 144 144" style="enable-background:new 0 0 144 144;" xml:space="preserve">
<style type="text/css">
	.st0{fill:none;}
</style>
<g>
	<path d="M90.7,54H66.9v18h34.7c1.2,0,2.3-0.2,3.4-0.7c1.1-0.4,2.1-1.1,3-2c0.9-0.9,1.5-1.9,2-3c0.4-1.1,0.7-2.2,0.7-3.4
		c0-1.2-0.2-2.3-0.7-3.4c-0.4-1.1-1.1-2.1-2-3L72.7,21.3c-2-2-5.3-2-7.3,0c-2,2-2,5.3,0,7.3L90.7,54z"/>
	<ellipse cx="122.1" cy="55.3" rx="9" ry="9"/>
	<path d="M14.9,113.2c1.3,0,2.6-0.5,3.6-1.5l43.1-43.1V54l-50.4,50.4c-1,1-1.5,2.3-1.5,3.6s0.5,2.6,1.5,3.6
		C12.3,112.7,13.6,113.2,14.9,113.2z"/>
	<path d="M113.1,87.4c0,1.3-0.4,2.6-1,3.8c-1,1.8-2.7,3-4.6,3.6L0,123.5v2.8l108.1-29c2.7-0.7,4.9-2.4,6.3-4.8
		c0.9-1.6,1.4-3.3,1.4-5.1L113.1,87.4z"/>
</g>
<rect class="st0" width="144" height="144"/>
</svg>
