<?xml version="1.0" encoding="utf-8"?>
<!-- Generator: Adobe Illustrator 27.0.0, SVG Export Plug-In . SVG Version: 6.00 Build 0)  -->
<svg version="1.1" id="Pictogram" xmlns="http://www.w3.org/2000/svg" xmlns:xlink="http://www.w3.org/1999/xlink" x="0px" y="0px"
	 viewBox="0 0 144 144" style="enable-background:new 0 0 144 144;" xml:space="preserve">
<style type="text/css">
	.st0{fill:none;}
</style>
<g>
	<path d="M65.1,122.1V91.3c0-1.4-0.6-2.7-1.5-3.6l-13-13h18.3l20.3,20.3c2,2,5.3,2,7.3,0c2-2,2-5.3,0-7.3L74.7,65.8
		c-1-1-2.3-1.5-3.6-1.5H30.6c0,3.2,1.3,6.1,3.4,8.2l20.9,20.9v28.7c0,2.8,2.3,5.1,5.1,5.1C62.8,127.3,65.1,124.9,65.1,122.1z"/>
	<circle cx="83.6" cy="23.1" r="9"/>
	<path d="M113.1,50.4c-1-1-2.3-1.5-3.6-1.5H91L56.5,14.3c-0.9-0.9-2.2-1.5-3.6-1.5H32.3c-2.8,0-5.1,2.3-5.1,5.1s2.3,5.1,5.1,5.1
		h18.4l7.9,7.9L30.6,59.1h32.7L75,47.4l10.2,10.2c1,1,2.3,1.5,3.6,1.5h20.6c1.3,0,2.6-0.5,3.6-1.5C115.1,55.6,115.1,52.4,113.1,50.4
		z"/>
	<path d="M76.8,128.6c-1.4,0-2.6,1.2-2.6,2.6c0,1.4,1.2,2.6,2.6,2.6c1.4,0,2.6-1.2,2.6-2.6C79.4,129.8,78.3,128.6,76.8,128.6z"/>
	<path d="M103.8,101.6c-1.4,0-2.6,1.2-2.6,2.6c0,1.4,1.2,2.6,2.6,2.6c1.4,0,2.6-1.2,2.6-2.6C106.4,102.8,105.3,101.6,103.8,101.6z"
		/>
	<path d="M98.9,97.9l-28.3,28.3c-3.1,3.1-7.3,4.9-11.7,4.9v2.7c5.1,0,10-2,13.6-5.6l28.3-28.3c3.6-3.6,5.6-8.5,5.6-13.6h-2.7
		C103.7,90.6,102,94.8,98.9,97.9z"/>
</g>
<rect class="st0" width="144" height="144"/>
</svg>
