<?xml version="1.0" encoding="utf-8"?>
<!-- Generator: Adobe Illustrator 27.0.0, SVG Export Plug-In . SVG Version: 6.00 Build 0)  -->
<svg version="1.1" id="Pictogram" xmlns="http://www.w3.org/2000/svg" xmlns:xlink="http://www.w3.org/1999/xlink" x="0px" y="0px"
	 viewBox="0 0 144 144" style="enable-background:new 0 0 144 144;" xml:space="preserve">
<style type="text/css">
	.st0{fill:none;}
</style>
<g>
	<circle cx="114.4" cy="102.8" r="9"/>
	<path d="M79.4,75.7H65.5l-5.2-5.2h13.9L29.3,25.6c-2-2-5.3-2-7.3,0s-2,5.3,0,7.3l33.4,33.4c-1.8-0.7-3.9-0.3-5.4,1.2
		c-2,2-2,5.3,0,7.3L85.3,110c2,2,4.5,2.9,7.1,2.9c2.6,0,5.1-1,7.1-2.9c2-2,2.9-4.5,2.9-7.1c0-2.6-1-5.1-2.9-7.1L79.4,75.7z"/>
	<path d="M36.9,68.5L35,70.5l43,43c4.8,4.8,11.2,7.5,18.1,7.5v-2.7c-6.1,0-11.8-2.4-16.1-6.7L36.9,68.5z"/>
</g>
<rect class="st0" width="144" height="144"/>
</svg>
