<?xml version="1.0" encoding="utf-8"?>
<!-- Generator: Adobe Illustrator 27.0.0, SVG Export Plug-In . SVG Version: 6.00 Build 0)  -->
<svg version="1.1" id="Pictogram" xmlns="http://www.w3.org/2000/svg" xmlns:xlink="http://www.w3.org/1999/xlink" x="0px" y="0px"
	 viewBox="0 0 144 144" style="enable-background:new 0 0 144 144;" xml:space="preserve">
<style type="text/css">
	.st0{fill:none;}
</style>
<g>
	<path d="M23.1,46.3h36v30.9h23.1V48.4l10.9,10.9c0.9,0.9,2.2,1.5,3.6,1.5h20.6c2.8,0,5.1-2.3,5.1-5.1c0-2.8-2.3-5.1-5.1-5.1H99
		L86,37.5c-1-1-2.3-1.5-3.6-1.5H23.1c-2.8,0-5.1,2.3-5.1,5.1C18,44,20.3,46.3,23.1,46.3z"/>
	<circle cx="73.3" cy="23.1" r="9"/>
	<g>
		<path d="M83.2,111.9c10.3,4.3,19.6,10.4,27.4,18.3l13.8,13.8h3.8l-15.7-15.7c-5.7-5.7-12-10.5-19-14.4
			c16.2-10.7,29.6-25.2,39.8-43l1.2-2h-2.3c-0.1,0-0.2,0-0.3,0c-20.8,0-40.1,4.5-57.6,13.4H43.7c-2.8,0-5.1,2.3-5.1,5.1v15.3H0v2.7
			h50.8C62,105.5,72.9,107.6,83.2,111.9z M48.9,92.6h8.7c-3,2.2-5.9,4.5-8.7,6.9V92.6z M69.8,87.8c18-10.4,38.2-15.9,60.1-16.2
			c-10.1,16.9-23.2,30.7-39,40.8c-2.2-1.1-4.4-2.1-6.6-3.1c-10.6-4.4-21.9-6.7-33.4-6.7h-1.5C55.6,97.1,62.4,92.1,69.8,87.8z"/>
	</g>
	<g>
		<path d="M78.1,122.2c10.3,4.3,19.6,10.4,27.4,18.3l3.5,3.5h3.8l-5.4-5.4c-8.2-8.2-17.7-14.5-28.3-19c-10.6-4.4-21.9-6.7-33.4-6.7
			H0v2.7h45.7C56.9,115.8,67.8,117.9,78.1,122.2z"/>
	</g>
	<g>
		<path d="M67,142.8c1,0.4,1.9,0.8,2.8,1.2H76c-2.6-1.4-5.2-2.6-7.9-3.7c-10.6-4.4-21.9-6.7-33.4-6.7H0v2.7h34.6
			C45.8,136.3,56.7,138.5,67,142.8z"/>
	</g>
	<g>
		<path d="M72.8,132.5c7.1,3,13.7,6.8,19.7,11.5h4.3c-6.9-5.8-14.6-10.5-23-14c-10.6-4.4-21.9-6.7-33.4-6.7H0v2.7h40.4
			C51.6,126,62.5,128.2,72.8,132.5z"/>
	</g>
</g>
<rect class="st0" width="144" height="144"/>
</svg>
