<?xml version="1.0" encoding="utf-8"?>
<!-- Generator: Adobe Illustrator 27.0.0, SVG Export Plug-In . SVG Version: 6.00 Build 0)  -->
<svg version="1.1" id="Pictogram" xmlns="http://www.w3.org/2000/svg" xmlns:xlink="http://www.w3.org/1999/xlink" x="0px" y="0px"
	 viewBox="0 0 144 144" style="enable-background:new 0 0 144 144;" xml:space="preserve">
<style type="text/css">
	.st0{fill:none;}
</style>
<g>
	<rect x="63" y="120.8" width="25.8" height="2.7"/>
	<rect x="28.9" y="97.7" width="2.7" height="25.8"/>
	<path d="M87.4,33.4H37.8c-2.8,0-5.1,2.3-5.1,5.1c0,2.8,2.3,5.1,5.1,5.1h15l10.3,10.3h24.3c5.7,0,10.3-4.6,10.3-10.3
		S93.1,33.4,87.4,33.4z"/>
	<ellipse cx="108.5" cy="34.6" rx="9" ry="9"/>
	<path d="M78.5,113.1V78.7c0-1.4-0.5-2.6-1.4-3.6L48.5,46.5c-4,4-4,10.5,0,14.5l15.1,15.1l-28.1,28.2c-1,1-1.5,2.3-1.5,3.6
		c0,1.3,0.5,2.6,1.5,3.6c1,1,2.3,1.5,3.6,1.5c1.3,0,2.6-0.5,3.6-1.5l25.5-25.5v27c0,1.4,0.6,2.7,1.5,3.6c0.9,0.9,2.2,1.5,3.6,1.5
		s2.7-0.6,3.6-1.5C78,115.8,78.5,114.5,78.5,113.1z"/>
</g>
<rect class="st0" width="144" height="144"/>
</svg>
