<?xml version="1.0" encoding="utf-8"?>
<!-- Generator: Adobe Illustrator 27.0.0, SVG Export Plug-In . SVG Version: 6.00 Build 0)  -->
<svg version="1.1" id="Pictogram" xmlns="http://www.w3.org/2000/svg" xmlns:xlink="http://www.w3.org/1999/xlink" x="0px" y="0px"
	 viewBox="0 0 144 144" style="enable-background:new 0 0 144 144;" xml:space="preserve">
<style type="text/css">
	.st0{fill:none;}
</style>
<g>
	<path d="M105.2,77.8c-1.4,0-2.7,0.6-3.6,1.5L90.7,90.3l-9.4-9.5v-8c0-2.4-0.9-4.6-2.5-6.2c-0.1-0.1-27.4-27.4-27.4-27.4
		c-2-2-5.3-2-7.3,0c-2,2-2,5.3,0,7.3L65,67.4c0,0-32.7,0-32.7,0L53,88.1h21l13,13c2,2,5.3,2,7.3,0l14.5-14.5
		c0.9-0.9,1.5-2.2,1.5-3.6C110.4,80.1,108.1,77.8,105.2,77.8z"/>
	<ellipse cx="92.3" cy="70.2" rx="9" ry="9"/>
	<rect x="19.1" y="134.3" width="25.8" height="2.7"/>
	<path d="M56.3,98.6L27.6,69.9L0,97.5V112l27.5-27.5l17.8,17.7l-20.7,20.7c-2,2-2,5.3,0,7.3s5.3,2,7.3,0c0,0,24.3-24.3,24.3-24.3
		C58.3,103.9,58.3,100.6,56.3,98.6z"/>
	<g>
		<path d="M128.9,47.2c-1.4,0-2.7,0.6-3.6,1.5l-10.9,10.9l-9.5-9.5v-8c0-2.4-0.9-4.6-2.5-6.2C102.4,35.9,75,8.6,75,8.6
			c-2-2-5.3-2-7.3,0c-2,2-2,5.3,0,7.3l20.9,20.9c0,0-32.7,0-32.7,0l20.7,20.6h21l13,13c2,2,5.3,2,7.3,0L132.6,56
			c0.9-0.9,1.5-2.2,1.5-3.6C134.1,49.5,131.8,47.2,128.9,47.2z"/>
		<ellipse cx="116" cy="39.5" rx="9" ry="9"/>
	</g>
</g>
<rect class="st0" width="144" height="144"/>
</svg>
