<?xml version="1.0" encoding="utf-8"?>
<!-- Generator: Adobe Illustrator 27.0.0, SVG Export Plug-In . SVG Version: 6.00 Build 0)  -->
<svg version="1.1" id="Pictogram" xmlns="http://www.w3.org/2000/svg" xmlns:xlink="http://www.w3.org/1999/xlink" x="0px" y="0px"
	 viewBox="0 0 144 144" style="enable-background:new 0 0 144 144;" xml:space="preserve">
<style type="text/css">
	.st0{fill:none;}
</style>
<g>
	<circle cx="33.4" cy="21.9" r="9"/>
	<path d="M119.3,23.4c-1-1-2.3-1.5-3.6-1.5c-1.3,0-2.6,0.5-3.6,1.5L61.7,73.7v57.4c0,2.8,2.3,5.1,5.1,5.1c2.8,0,5.1-2.3,5.1-5.1V78
		l47.3-47.3c1-1,1.5-2.3,1.5-3.6C120.9,25.7,120.4,24.4,119.3,23.4z"/>
	<path d="M59.6,38.8h8.5c1.3,0,2.6-0.5,3.6-1.5c1-1,1.5-2.3,1.5-3.6V12.9c0-1.4-0.6-2.7-1.5-3.6c-0.9-0.9-2.2-1.5-3.6-1.5
		c-1.4,0-2.7,0.6-3.6,1.5c-0.9,0.9-1.5,2.2-1.5,3.6v15.7H47.2c-1.4,0-2.7,0.6-3.6,1.5L30.8,42.8c-0.9,0.9-1.5,2.2-1.5,3.6v20
		c0,1.4,0.6,2.7,1.5,3.6c0.9,0.9,2.2,1.5,3.6,1.5h20c1.4,0,2.7-0.6,3.6-1.5l16.4-16.4L59.6,38.8z M39.6,61.3v-9.7l9.7,9.7H39.6z"/>
</g>
<rect class="st0" width="144" height="144"/>
</svg>
