<?xml version="1.0" encoding="utf-8"?>
<!-- Generator: Adobe Illustrator 27.0.0, SVG Export Plug-In . SVG Version: 6.00 Build 0)  -->
<svg version="1.1" id="Pictogram" xmlns="http://www.w3.org/2000/svg" xmlns:xlink="http://www.w3.org/1999/xlink" x="0px" y="0px"
	 viewBox="0 0 144 144" style="enable-background:new 0 0 144 144;" xml:space="preserve">
<style type="text/css">
	.st0{fill:none;}
</style>
<g>
	<g>
		<path d="M53.6,38.8L18.4,74c-1.6,1.6-1.6,4.3,0,6s4.3,1.6,6,0l13.1-13.1h34c1.1,0,2.2-0.4,3-1.2c0.8-0.8,1.2-1.9,1.2-3
			c0-1.1-0.4-2.2-1.2-3L53.6,38.8z M53.6,50.7l7.7,7.7H45.9L53.6,50.7z"/>
		<path d="M110.6,25.4c-1.6-1.6-4.3-1.6-6,0l-7.5,7.5L70.5,6.4c-0.8-0.8-1.8-1.2-3-1.2s-2.2,0.5-3,1.2L52.7,18.3
			c-1.6,1.6-1.6,4.3,0,6c1.6,1.6,4.3,1.6,6,0l8.9-8.9l4.8,4.8L56.6,35.9L70,49.3l15.8-15.8l8.4,8.4c1.6,1.6,4.3,1.6,6,0l10.5-10.5
			C112.2,29.8,112.2,27.1,110.6,25.4z"/>
		<circle cx="92.8" cy="13.1" r="7.4"/>
	</g>
	<g>
		<circle cx="120.4" cy="68.6" r="7.4"/>
		<path d="M138.1,90.3c-1.4,1-2.6,1.9-5.2,1.9s-3.8-0.9-5.3-1.9c-1.1-0.7-2.2-1.6-3.9-2L99.5,64c-1.6-1.6-4.3-1.6-6,0L81.6,75.9
			c-0.8,0.8-1.2,1.9-1.2,3c0,1.1,0.4,2.2,1.2,3c0.8,0.8,1.9,1.2,3,1.2c1.1,0,2.2-0.4,3-1.2l8.9-8.9l8.9,8.9l-6.2,6.2
			c-0.5-0.1-1.2-0.1-1.8-0.1c-3.3,0-5,1.2-6.6,2.3c-1.4,1-2.7,1.9-5.3,1.9s-3.8-0.9-5.3-1.9c-1.5-1.1-3.2-2.3-6.6-2.3v2.2
			c2.6,0,3.8,0.9,5.3,1.9c1.5,1.1,3.2,2.3,6.6,2.3s5-1.2,6.6-2.3c1.4-1,2.7-1.9,5.3-1.9c2.6,0,3.8,0.9,5.3,1.9
			c1.5,1.1,3.2,2.3,6.6,2.3s5-1.2,6.6-2.3c1.4-1,2.7-1.9,5.3-1.9c2.6,0,3.8,0.9,5.3,1.9c1.5,1.1,3.2,2.3,6.6,2.3
			c3.3,0,5-1.2,6.6-2.3c1.3-0.9,2.4-1.7,4.5-1.9v-2.2C141.1,88.1,139.6,89.2,138.1,90.3z"/>
		<path d="M138.1,99.7c-1.4,1-2.7,1.9-5.3,1.9c-2.6,0-3.8-0.9-5.3-1.9c-1.5-1.1-3.2-2.3-6.6-2.3s-5,1.2-6.6,2.3
			c-1.4,1-2.7,1.9-5.3,1.9c-2.6,0-3.8-0.9-5.3-1.9c-1.5-1.1-3.2-2.3-6.5-2.3s-5,1.2-6.6,2.3c-1.4,1-2.7,1.9-5.3,1.9
			c-2.6,0-3.8-0.9-5.3-1.9c-1.5-1.1-3.2-2.3-6.6-2.3v2.2c2.6,0,3.8,0.9,5.3,1.9c1.5,1.1,3.2,2.3,6.6,2.3s5-1.2,6.6-2.3
			c1.4-1,2.7-1.9,5.3-1.9c2.6,0,3.8,0.9,5.3,1.9c1.5,1.1,3.2,2.3,6.6,2.3s5-1.2,6.6-2.3c1.4-1,2.7-1.9,5.3-1.9
			c2.6,0,3.8,0.9,5.3,1.9c1.5,1.1,3.2,2.3,6.6,2.3c3.3,0,5-1.2,6.6-2.3c1.3-0.9,2.4-1.7,4.5-1.9v-2.2
			C141.1,97.6,139.6,98.7,138.1,99.7z"/>
	</g>
	<g>
		<ellipse cx="59.9" cy="85.2" rx="7.4" ry="7.4"/>
		<path d="M13.6,144v-10.7l16.7-16.7c1.6-1.6,1.6-4.3,0-6L7.9,88.4c-1.9,1.9-2.8,4.3-2.8,6.7V144H13.6z M13.6,105.9l7.7,7.7
			l-7.7,7.7V105.9z"/>
		<path d="M43.4,101v9.5v0c-7.8,4.3-13,12.6-13,22.1c0,4.1,1,7.9,2.7,11.3h2.5c-1.9-3.4-3-7.3-3-11.3c0-6.2,2.4-12,6.8-16.3
			c1.4-1.4,3-2.6,4.7-3.6c0.2,0.3,0.4,0.5,0.6,0.8l13.4,13.4c1.6,1.6,4.3,1.6,6,0c1.6-1.6,1.6-4.3,0-6l-11.2-11.2
			c0.9-0.1,1.9-0.2,2.9-0.2c6.2,0,12,2.4,16.3,6.8s6.8,10.1,6.8,16.3c0,4-1,7.9-3,11.3h2.5c1.7-3.4,2.7-7.3,2.7-11.3
			c0-14-11.3-25.3-25.3-25.3c-1.3,0-2.6,0.1-3.8,0.3v-14c0-1.9-0.7-3.8-2.2-5.2c-1.4-1.4-3.2-2.1-5-2.2H11.5L26.2,101H43.4z"/>
	</g>
</g>
<rect class="st0" width="144" height="144"/>
</svg>
