<?xml version="1.0" encoding="utf-8"?>
<!-- Generator: Adobe Illustrator 27.0.0, SVG Export Plug-In . SVG Version: 6.00 Build 0)  -->
<svg version="1.1" id="Pictogram" xmlns="http://www.w3.org/2000/svg" xmlns:xlink="http://www.w3.org/1999/xlink" x="0px" y="0px"
	 viewBox="0 0 144 144" style="enable-background:new 0 0 144 144;" xml:space="preserve">
<style type="text/css">
	.st0{fill:none;}
</style>
<g>
	<path d="M144,78.3H0V81h30.9L20.5,91.4c-2,2-2,5.3,0,7.3s5.3,2,7.3,0L45.4,81h3.6L7.8,122.3c-2,2-2,5.3,0,7.3c2,2,5.3,2,7.3,0
		L63.6,81H144V78.3z"/>
	<circle cx="92.3" cy="37.3" r="9"/>
	<path d="M40.7,37.1h18.4l7.9,7.9L39,73.1h32.7l11.7-11.7l10.2,10.2c1,1,2.3,1.5,3.6,1.5h20.6c1.3,0,2.6-0.5,3.6-1.5
		c1.7-1.7,2-4.2,0.8-6.2l1.9-1.9c1.6,1.2,3.5,1.8,5.4,1.8c2.3,0,4.7-0.9,6.4-2.6c3.5-3.5,3.5-9.3,0-12.8l0,0
		c-3.5-3.5-9.3-3.5-12.8,0c-3.2,3.2-3.5,8.3-0.9,11.8l-1.9,1.9c-0.8-0.4-1.7-0.7-2.5-0.7H99.5L64.9,28.3c-0.9-0.9-2.2-1.5-3.6-1.5
		H40.7c-2.8,0-5.1,2.3-5.1,5.1S37.9,37.1,40.7,37.1z M125.2,51.7c1.2-1.2,2.9-1.9,4.5-1.9s3.3,0.6,4.5,1.9c2.5,2.5,2.5,6.5,0,9
		c-2.5,2.5-6.5,2.5-9,0C122.8,58.2,122.8,54.2,125.2,51.7z"/>
	<path d="M129.7,41.1c2.9,0,5.2-2.3,5.2-5.2s-2.3-5.2-5.2-5.2s-5.2,2.3-5.2,5.2C124.6,38.8,126.9,41.1,129.7,41.1z M129.7,33.5
		c1.3,0,2.4,1.1,2.4,2.4s-1.1,2.4-2.4,2.4c-1.3,0-2.4-1.1-2.4-2.4C127.3,34.6,128.4,33.5,129.7,33.5z"/>
</g>
<rect class="st0" width="144" height="144"/>
</svg>
