<?xml version="1.0" encoding="utf-8"?>
<!-- Generator: Adobe Illustrator 27.0.0, SVG Export Plug-In . SVG Version: 6.00 Build 0)  -->
<svg version="1.1" id="Pictogram" xmlns="http://www.w3.org/2000/svg" xmlns:xlink="http://www.w3.org/1999/xlink" x="0px" y="0px"
	 viewBox="0 0 144 144" style="enable-background:new 0 0 144 144;" xml:space="preserve">
<style type="text/css">
	.st0{fill:none;}
</style>
<g>
	<path d="M126,72v20.4h-2.4c-0.2-0.7-0.6-1.4-1.2-1.9L87.3,55.4c-0.9-0.9-2.2-1.5-3.6-1.5H60.5c-1.4,0-2.7,0.6-3.6,1.5L21.7,90.5
		c-0.6,0.6-1,1.2-1.2,1.9H18V72H6.4v43.7H18V95.2h2.3c0.2,1,0.7,1.9,1.4,2.6c2,2,5.3,2,7.3,0l2.6-2.6h16v15.4c0,2.8,2.3,5.1,5.1,5.1
		c2.8,0,5.1-2.3,5.1-5.1V95.2h28.3v15.4c0,2.8,2.3,5.1,5.1,5.1c2.8,0,5.1-2.3,5.1-5.1V95.2h16l2.6,2.6c2,2,5.3,2,7.3,0
		c0.7-0.7,1.2-1.7,1.4-2.6h2.2v20.5h11.6V72H126z M15.3,113H9.1V74.7h6.1V113z M52.8,79.7c-2.8,0-5.1,2.3-5.1,5.1v7.6H34.4
		l26.1-26.1v26.1h-2.6v-7.6C57.9,82,55.6,79.7,52.8,79.7z M96.5,92.4v-7.6c0-2.8-2.3-5.1-5.1-5.1c-2.8,0-5.1,2.3-5.1,5.1v7.6h-2.6
		V66.3l26.1,26.1H96.5z M134.9,113h-6.1V74.7h6.1V113z"/>
	<ellipse cx="72" cy="41.1" rx="9" ry="9"/>
</g>
<rect class="st0" width="144" height="144"/>
</svg>
