<?xml version="1.0" encoding="utf-8"?>
<!-- Generator: Adobe Illustrator 27.0.0, SVG Export Plug-In . SVG Version: 6.00 Build 0)  -->
<svg version="1.1" id="Pictogram" xmlns="http://www.w3.org/2000/svg" xmlns:xlink="http://www.w3.org/1999/xlink" x="0px" y="0px"
	 viewBox="0 0 144 144" style="enable-background:new 0 0 144 144;" xml:space="preserve">
<style type="text/css">
	.st0{fill:none;}
</style>
<g>
	<circle cx="55.3" cy="32.1" r="9"/>
	<circle cx="75.9" cy="32.1" r="9"/>
	<path d="M111.9,78.2l16.4-16.4l-17-17c-3.5-3.5-9.2-3.5-12.7,0L77.7,65.6L66.1,54h17.4c1.4,0,2.7-0.6,3.6-1.5l14.5-14.5
		c2-2,2-5.3,0-7.3s-5.3-2-7.3,0l-13,13H47.6c-2.3,0-4.6,0.9-6.4,2.6L13,74.6h32.6l13.3-13.3l15.2,15.2c2,2,5.3,2,7.3,0l14.4-14.4
		L111.9,78.2z"/>
	<path d="M54,79.7H10.3v22.6L0,112.6v14.5l19.1-19.1c0.9-0.9,1.5-2.2,1.5-3.6V90h28.3v33.4c0,2.8,2.3,5.1,5.1,5.1s5.1-2.3,5.1-5.1
		V84.9C59.1,82,56.8,79.7,54,79.7z"/>
	<path d="M144,77.5l-12.1-12.1l-25,25c-0.9,0.9-1.5,2.2-1.5,3.6v29.3c0,2.8,2.3,5.1,5.1,5.1c2.8,0,5.1-2.3,5.1-5.1V96.2L131.9,80
		L144,92.1L144,77.5L144,77.5z"/>
</g>
<rect class="st0" width="144" height="144"/>
</svg>
